<?xml version="1.0" standalone="no"?>
<!DOCTYPE svg PUBLIC "-//W3C//DTD SVG 20010904//EN"
 "http://www.w3.org/TR/2001/REC-SVG-20010904/DTD/svg10.dtd">
<svg version="1.0" xmlns="http://www.w3.org/2000/svg"
 width="379.000000pt" height="379.000000pt" viewBox="0 0 379.000000 379.000000"
 preserveAspectRatio="xMidYMid meet">

<g transform="translate(0.000000,379.000000) scale(0.100000,-0.100000)"
fill="#7163fd" stroke="none">
<path d="M895 3780 c-238 -25 -450 -132 -617 -309 -156 -166 -244 -357 -268
-586 -13 -118 -13 -1862 0 -1980 27 -252 127 -456 309 -627 166 -156 357 -244
586 -268 118 -13 1862 -13 1980 0 252 27 456 127 627 309 156 166 244 357 268
586 13 118 13 1862 0 1980 -27 252 -127 456 -309 627 -166 156 -357 244 -586
268 -105 11 -1884 11 -1990 0z m2555 -1870 l0 -550 -110 0 -110 0 0 543 c0
299 3 547 7 550 3 4 53 7 110 7 l103 0 0 -550z m-2755 529 c79 -15 142 -48
192 -102 51 -55 68 -86 55 -99 -5 -5 -45 -31 -88 -58 -69 -44 -80 -48 -89 -33
-28 45 -71 84 -105 94 -75 23 -143 -11 -156 -78 -5 -24 0 -37 25 -65 29 -34
82 -61 241 -127 142 -59 211 -129 230 -234 20 -105 -21 -231 -96 -297 -166
-145 -453 -129 -603 36 -48 53 -95 149 -89 182 2 11 33 23 93 39 50 12 97 23
105 23 10 0 20 -16 27 -43 24 -88 91 -137 188 -137 103 0 155 42 155 125 0 49
-31 78 -138 127 -196 89 -237 112 -283 158 -59 59 -84 133 -76 220 10 111 65
191 164 237 87 40 155 49 248 32z m545 -205 l0 -185 35 26 c92 71 260 72 355
4 28 -20 51 -49 68 -87 l27 -57 3 -287 3 -288 -105 0 -104 0 -4 253 c-2 180
-7 258 -16 274 -18 33 -64 53 -121 53 -42 0 -54 -5 -80 -30 -47 -47 -53 -85
-58 -328 l-5 -223 -106 3 -107 3 -3 515 c-1 283 0 521 3 528 3 8 35 12 110 12
l105 0 0 -186z m981 -118 c149 -35 254 -154 280 -318 6 -35 8 -79 5 -98 l-6
-35 13 30 c8 17 30 45 50 62 56 49 118 63 285 63 l144 0 -7 33 c-13 59 -56 87
-135 87 -55 0 -106 -21 -159 -65 l-31 -27 -75 63 -76 62 33 34 c42 43 151 98
225 114 61 12 172 7 234 -11 50 -14 113 -58 144 -100 49 -66 55 -112 55 -392
l0 -258 -100 0 c-92 0 -100 2 -100 19 0 46 -10 52 -44 26 -54 -41 -106 -58
-181 -58 -157 0 -273 102 -275 243 l-1 55 -14 -42 c-57 -183 -248 -290 -445
-249 -89 19 -144 50 -203 116 -115 127 -129 351 -32 498 86 129 250 188 416
148z"/>
<path d="M2035 1921 c-17 -10 -39 -30 -48 -44 -44 -68 -46 -206 -4 -268 39
-57 71 -74 140 -74 76 0 115 24 147 91 19 39 22 57 18 130 -5 93 -18 121 -78
162 -43 29 -131 31 -175 3z"/>
<path d="M2730 1640 c-37 -37 -21 -91 31 -109 87 -30 189 16 217 99 l11 30
-120 0 c-106 0 -121 -2 -139 -20z"/>
</g>
</svg>
