<?xml version="1.0" standalone="no"?>
<!DOCTYPE svg PUBLIC "-//W3C//DTD SVG 20010904//EN"
 "http://www.w3.org/TR/2001/REC-SVG-20010904/DTD/svg10.dtd">
<svg version="1.0" xmlns="http://www.w3.org/2000/svg"
 width="922.000000pt" height="348.000000pt" viewBox="0 0 922.000000 348.000000"
 preserveAspectRatio="xMidYMid meet">

<g transform="translate(0.000000,348.000000) scale(0.100000,-0.100000)"
fill="#7164fd" stroke="none">
<path d="M8060 1775 l0 -1395 270 0 270 0 0 1395 0 1395 -270 0 -270 0 0
-1395z"/>
<path d="M1230 3140 c-119 -14 -228 -46 -330 -97 -79 -39 -111 -63 -186 -138
-75 -74 -99 -105 -133 -175 -49 -101 -68 -171 -76 -283 -13 -164 26 -332 106
-451 111 -166 275 -274 681 -446 301 -127 425 -208 474 -308 27 -54 26 -181
-2 -243 -76 -166 -337 -243 -573 -170 -163 51 -277 179 -326 366 -8 32 -15 67
-15 76 0 14 -37 7 -262 -49 -145 -35 -266 -68 -270 -71 -4 -4 3 -48 17 -99 72
-270 256 -487 520 -613 125 -60 253 -95 405 -109 434 -42 817 143 979 473 73
149 85 203 86 387 0 133 -3 165 -22 225 -76 242 -268 391 -753 585 -294 118
-419 194 -470 283 -39 68 -46 121 -26 189 42 145 215 228 386 184 114 -29 223
-121 278 -233 15 -29 30 -53 34 -53 5 0 108 61 228 137 l220 136 -26 46 c-95
164 -241 300 -403 373 -146 67 -366 98 -541 78z"/>
<path d="M2410 1730 l0 -1350 260 0 260 0 0 433 c0 237 5 484 11 547 25 283
95 428 234 492 72 33 236 32 311 -1 98 -43 155 -127 174 -257 5 -39 10 -315
10 -641 l0 -573 255 0 256 0 -3 717 -3 718 -27 80 c-74 216 -218 352 -438 411
-92 25 -339 26 -430 1 -114 -31 -206 -81 -281 -154 l-69 -66 0 496 0 497 -260
0 -260 0 0 -1350z"/>
<path d="M5046 2319 c-339 -49 -603 -258 -733 -579 -57 -141 -68 -206 -67
-410 0 -166 3 -195 26 -281 92 -339 328 -583 659 -680 111 -32 359 -38 489
-11 329 68 584 298 696 626 79 230 72 530 -17 754 -82 207 -251 393 -444 490
-172 86 -405 121 -609 91z m278 -454 c114 -24 204 -91 260 -195 91 -168 94
-488 6 -661 -32 -62 -112 -142 -172 -171 -111 -54 -274 -62 -392 -18 -78 30
-167 113 -206 195 -85 178 -87 453 -5 633 81 177 285 264 509 217z"/>
<path d="M6960 2323 c-200 -21 -412 -102 -566 -216 -70 -51 -174 -146 -174
-157 0 -7 327 -285 358 -304 7 -4 36 14 77 51 144 129 266 179 435 177 166 -1
254 -46 310 -157 23 -46 30 -74 30 -119 l0 -58 -312 0 c-324 0 -454 -11 -563
-46 -186 -61 -309 -182 -359 -353 -21 -71 -21 -246 -1 -326 44 -172 154 -306
326 -395 107 -56 216 -80 360 -80 208 0 357 57 485 186 l71 71 18 -108 18
-109 239 0 239 0 -3 678 c-4 759 -1 720 -80 882 -75 154 -226 276 -418 340
-125 41 -337 59 -490 43z m470 -1191 c0 -138 -128 -285 -297 -343 -95 -33
-235 -33 -311 0 -169 75 -172 291 -4 345 75 24 75 24 350 25 l262 1 0 -28z"/>
</g>
</svg>
